<?xml version="1.0"?>
<svg xmlns="http://www.w3.org/2000/svg" xmlns:xlink="http://www.w3.org/1999/xlink" version="1.1" id="Capa_1" x="0px" y="0px" viewBox="0 0 471.881 471.881" style="enable-background:new 0 0 471.881 471.881;" xml:space="preserve" width="512px" height="512px" class=""><g><g>
	<path d="M387.768,190.037c-26.508-40.278-66.402-66.564-109.988-76.877V94.854c0-14.473-11.18-26.376-25.355-27.548V55.924   c8.531-5.557,13.869-15.196,13.869-25.516C266.293,13.641,252.652,0,235.884,0s-30.408,13.641-30.408,30.409   c0,10.319,5.338,19.958,13.869,25.516v11.383c-14.176,1.171-25.355,13.075-25.355,27.548v18.201   c-20.143,4.748-39.8,13.037-58.065,25.059c-83.748,55.118-107.04,168.094-51.922,251.843c26.7,40.57,67.601,68.313,115.168,78.12   c12.351,2.546,24.761,3.804,37.086,3.804c35.144,0,69.553-10.233,99.589-30.001c40.569-26.701,68.313-67.602,78.12-115.168   C423.772,279.146,414.468,230.606,387.768,190.037z M405.424,300.259c-2.388-2.789-3.788-6.394-3.788-10.258   c0-3.888,1.415-7.512,3.825-10.308C405.864,286.514,405.854,293.379,405.424,300.259z M394.101,239.197   c0,4.695-3.819,8.514-8.515,8.514s-8.515-3.819-8.515-8.514s3.819-8.514,8.515-8.514S394.101,234.502,394.101,239.197z    M235.992,150.09c24.133,0,48.23-4.797,70.766-14.362c5.63,2.575,11.13,5.465,16.477,8.661   c-27.042,13.434-56.941,20.503-87.175,20.503c-0.432,0-0.866-0.001-1.299-0.004c-29.922-0.2-59.529-7.277-86.262-20.505   c5.373-3.228,10.86-6.126,16.438-8.695C187.63,145.28,211.823,150.09,235.992,150.09z M181.43,129.123   c17.684-5.982,35.993-8.902,54.192-8.902c18.58,0,37.041,3.052,54.607,8.967C255.078,141.065,216.741,141.042,181.43,129.123z    M217.476,30.409c0-10.15,8.258-18.409,18.408-18.409s18.409,8.258,18.409,18.409c0,7.043-4.107,13.563-10.463,16.61   c-2.082,0.998-3.406,3.102-3.406,5.41v14.775h-9.079V52.429c0-2.309-1.324-4.412-3.406-5.41   C221.583,43.971,217.476,37.452,217.476,30.409z M205.989,94.854c0-8.63,7.021-15.65,15.65-15.65h28.489   c8.63,0,15.65,7.021,15.65,15.65v15.89c-19.659-3.286-39.871-3.373-59.79-0.082V94.854z M87.194,230.683   c4.695,0,8.515,3.819,8.515,8.514s-3.819,8.514-8.515,8.514c-4.694,0-8.514-3.819-8.514-8.514S82.499,230.683,87.194,230.683z    M66.43,279.826c2.34,2.778,3.706,6.352,3.706,10.175c0,3.837-1.378,7.42-3.734,10.2C66.004,293.4,66.015,286.595,66.43,279.826z    M78.68,340.797c0-4.695,3.819-8.514,8.514-8.514c4.695,0,8.515,3.819,8.515,8.514s-3.819,8.515-8.515,8.515   C82.499,349.312,78.68,345.492,78.68,340.797z M148.425,435.662c27.459-13.659,57.887-20.736,88.582-20.557   c29.922,0.2,59.529,7.276,86.261,20.502c-5.344,3.214-10.819,6.123-16.408,8.708c-45.405-19.2-96.84-19.197-141.985,0.008   C159.221,441.735,153.732,438.843,148.425,435.662z M201.593,456.325c-6.9-1.422-13.649-3.25-20.222-5.463   c35.22-11.941,73.654-11.931,109.041,0.032C262.113,460.538,231.646,462.52,201.593,456.325z M334.778,428.046   c-29.941-16.086-63.625-24.714-97.691-24.941c-34.959-0.23-69.461,8.42-100.169,25.009c-16.711-11.983-31.248-27.062-42.892-44.754   c-4.879-7.414-9.097-15.073-12.675-22.908c1.854,0.552,3.812,0.859,5.843,0.859c11.312,0,20.515-9.203,20.515-20.515   c0-11.312-9.203-20.514-20.515-20.514c-6.851,0-12.912,3.388-16.64,8.563c-1.13-4.832-2.032-9.695-2.729-14.572   c8.72-4.817,14.311-14.026,14.311-24.273c0-10.223-5.566-19.418-14.248-24.247c0.706-4.874,1.615-9.716,2.738-14.509   c3.734,5.12,9.76,8.467,16.567,8.467c11.312,0,20.515-9.203,20.515-20.514s-9.203-20.514-20.515-20.514   c-2.001,0-3.93,0.301-5.76,0.838c11.927-26.25,30.648-49.745,55.562-67.573c29.941,16.085,63.622,24.712,97.685,24.94   c0.461,0.003,0.918,0.005,1.379,0.005c34.404,0,68.407-8.624,98.692-24.959c16.517,11.799,31.182,26.755,42.993,44.701   c4.793,7.284,8.98,14.845,12.562,22.619c-1.518-0.36-3.094-0.57-4.72-0.57c-11.312,0-20.515,9.203-20.515,20.514   s9.203,20.514,20.515,20.514c6.422,0,12.159-2.971,15.923-7.605c1.028,4.483,1.878,9.004,2.534,13.557   c-8.775,4.803-14.407,14.048-14.407,24.338c0,10.249,5.598,19.466,14.324,24.282c-0.487,3.338-1.061,6.675-1.748,10.006   c-0.242,1.175-0.503,2.344-0.769,3.511c-3.765-4.586-9.475-7.517-15.857-7.517c-11.312,0-20.515,9.203-20.515,20.514   c0,11.312,9.203,20.515,20.515,20.515c1.638,0,3.224-0.214,4.752-0.578C378.143,387.497,359.155,410.618,334.778,428.046z    M385.586,349.312c-4.695,0-8.515-3.82-8.515-8.515s3.819-8.514,8.515-8.514s8.515,3.819,8.515,8.514   S390.281,349.312,385.586,349.312z" data-original="#000000" class="active-path" data-old_color="#fdc600" fill="#fdc600"/>
	<path d="M263.656,289.997c0-15.313-12.458-27.771-27.771-27.771s-27.771,12.458-27.771,27.771s12.458,27.771,27.771,27.771   S263.656,305.311,263.656,289.997z M235.885,305.769c-8.696,0-15.771-7.075-15.771-15.771s7.075-15.771,15.771-15.771   s15.771,7.075,15.771,15.771S244.581,305.769,235.885,305.769z" data-original="#000000" class="active-path" data-old_color="#fdc600" fill="#fdc600"/>
	<path d="M203.149,289.997c0-15.313-12.458-27.771-27.771-27.771s-27.771,12.458-27.771,27.771s12.458,27.771,27.771,27.771   S203.149,305.311,203.149,289.997z M175.377,305.769c-8.696,0-15.771-7.075-15.771-15.771s7.075-15.771,15.771-15.771   s15.771,7.075,15.771,15.771S184.073,305.769,175.377,305.769z" data-original="#000000" class="active-path" data-old_color="#fdc600" fill="#fdc600"/>
	<path d="M142.641,289.997c0-15.313-12.458-27.771-27.771-27.771c-15.313,0-27.771,12.458-27.771,27.771   s12.458,27.771,27.771,27.771C130.183,317.769,142.641,305.311,142.641,289.997z M114.87,305.769   c-8.696,0-15.771-7.075-15.771-15.771s7.075-15.771,15.771-15.771s15.771,7.075,15.771,15.771S123.567,305.769,114.87,305.769z" data-original="#000000" class="active-path" data-old_color="#fdc600" fill="#fdc600"/>
	<path d="M324.163,289.997c0-15.313-12.458-27.771-27.771-27.771s-27.771,12.458-27.771,27.771s12.458,27.771,27.771,27.771   S324.163,305.311,324.163,289.997z M296.392,305.769c-8.696,0-15.771-7.075-15.771-15.771s7.075-15.771,15.771-15.771   s15.771,7.075,15.771,15.771S305.088,305.769,296.392,305.769z" data-original="#000000" class="active-path" data-old_color="#fdc600" fill="#fdc600"/>
	<path d="M384.671,289.997c0-15.313-12.458-27.771-27.771-27.771s-27.771,12.458-27.771,27.771s12.458,27.771,27.771,27.771   S384.671,305.311,384.671,289.997z M356.9,305.769c-8.696,0-15.771-7.075-15.771-15.771s7.075-15.771,15.771-15.771   s15.771,7.075,15.771,15.771S365.596,305.769,356.9,305.769z" data-original="#000000" class="active-path" data-old_color="#fdc600" fill="#fdc600"/>
	<path d="M206.551,259.711c11.312,0,20.514-9.203,20.514-20.514s-9.202-20.514-20.514-20.514s-20.515,9.203-20.515,20.514   S195.239,259.711,206.551,259.711z M206.551,230.683c4.694,0,8.514,3.819,8.514,8.514s-3.819,8.514-8.514,8.514   c-4.695,0-8.515-3.819-8.515-8.514S201.856,230.683,206.551,230.683z" data-original="#000000" class="active-path" data-old_color="#fdc600" fill="#fdc600"/>
	<path d="M146.872,259.711c11.312,0,20.515-9.203,20.515-20.514s-9.203-20.514-20.515-20.514s-20.515,9.203-20.515,20.514   S135.561,259.711,146.872,259.711z M146.872,230.683c4.695,0,8.515,3.819,8.515,8.514s-3.819,8.514-8.515,8.514   s-8.515-3.819-8.515-8.514S142.177,230.683,146.872,230.683z" data-original="#000000" class="active-path" data-old_color="#fdc600" fill="#fdc600"/>
	<path d="M266.23,259.711c11.312,0,20.514-9.203,20.514-20.514s-9.202-20.514-20.514-20.514c-11.312,0-20.515,9.203-20.515,20.514   S254.918,259.711,266.23,259.711z M266.23,230.683c4.694,0,8.514,3.819,8.514,8.514s-3.819,8.514-8.514,8.514   c-4.695,0-8.515-3.819-8.515-8.514S261.534,230.683,266.23,230.683z" data-original="#000000" class="active-path" data-old_color="#fdc600" fill="#fdc600"/>
	<path d="M325.907,259.711c11.312,0,20.515-9.203,20.515-20.514s-9.203-20.514-20.515-20.514s-20.514,9.203-20.514,20.514   S314.596,259.711,325.907,259.711z M325.907,230.683c4.695,0,8.515,3.819,8.515,8.514s-3.819,8.514-8.515,8.514   c-4.694,0-8.514-3.819-8.514-8.514S321.213,230.683,325.907,230.683z" data-original="#000000" class="active-path" data-old_color="#fdc600" fill="#fdc600"/>
	<path d="M206.551,320.283c-11.312,0-20.515,9.203-20.515,20.514c0,11.312,9.203,20.515,20.515,20.515s20.514-9.203,20.514-20.515   C227.065,329.485,217.863,320.283,206.551,320.283z M206.551,349.312c-4.695,0-8.515-3.82-8.515-8.515s3.819-8.514,8.515-8.514   c4.694,0,8.514,3.819,8.514,8.514S211.245,349.312,206.551,349.312z" data-original="#000000" class="active-path" data-old_color="#fdc600" fill="#fdc600"/>
	<path d="M146.872,320.283c-11.312,0-20.515,9.203-20.515,20.514c0,11.312,9.203,20.515,20.515,20.515s20.515-9.203,20.515-20.515   C167.387,329.485,158.184,320.283,146.872,320.283z M146.872,349.312c-4.695,0-8.515-3.82-8.515-8.515s3.819-8.514,8.515-8.514   s8.515,3.819,8.515,8.514S151.568,349.312,146.872,349.312z" data-original="#000000" class="active-path" data-old_color="#fdc600" fill="#fdc600"/>
	<path d="M266.23,320.283c-11.312,0-20.515,9.203-20.515,20.514c0,11.312,9.203,20.515,20.515,20.515   c11.312,0,20.514-9.203,20.514-20.515C286.743,329.485,277.541,320.283,266.23,320.283z M266.23,349.312   c-4.695,0-8.515-3.82-8.515-8.515s3.819-8.514,8.515-8.514c4.694,0,8.514,3.819,8.514,8.514S270.924,349.312,266.23,349.312z" data-original="#000000" class="active-path" data-old_color="#fdc600" fill="#fdc600"/>
	<path d="M325.907,320.283c-11.312,0-20.514,9.203-20.514,20.514c0,11.312,9.202,20.515,20.514,20.515s20.515-9.203,20.515-20.515   C346.422,329.485,337.219,320.283,325.907,320.283z M325.907,349.312c-4.694,0-8.514-3.82-8.514-8.515s3.819-8.514,8.514-8.514   c4.695,0,8.515,3.819,8.515,8.514S330.603,349.312,325.907,349.312z" data-original="#000000" class="active-path" data-old_color="#fdc600" fill="#fdc600"/>
</g></g> </svg>
