<?xml version="1.0"?>
<svg xmlns="http://www.w3.org/2000/svg" xmlns:xlink="http://www.w3.org/1999/xlink" version="1.1" id="Capa_1" x="0px" y="0px" viewBox="0 0 471.822 471.822" style="enable-background:new 0 0 471.822 471.822;" xml:space="preserve" width="512px" height="512px" class=""><g><g>
	<path d="M277.806,113.051V94.854c0-14.473-11.179-26.377-25.355-27.548V55.924c8.531-5.558,13.869-15.196,13.869-25.515   C266.32,13.641,252.678,0,235.911,0c-16.767,0-30.408,13.641-30.408,30.409c0,10.319,5.337,19.958,13.869,25.515v11.383   c-14.176,1.171-25.355,13.075-25.355,27.548v18.196c-80.129,18.97-139.931,91.102-139.931,176.946   c0,100.259,81.567,181.826,181.826,181.826s181.826-81.567,181.826-181.826C417.737,204.152,357.935,132.02,277.806,113.051z    M361.448,320.814c-2.338-2.313-6.102-2.313-8.439,0l-36.221,35.826l-36.221-35.826c-2.338-2.313-6.101-2.313-8.438,0   l-36.22,35.826l-36.211-35.825c-2.338-2.313-6.102-2.313-8.439,0l-36.221,35.826l-36.221-35.826c-2.338-2.313-6.102-2.313-8.438,0   l-32.276,31.925c-4.687-11.747-8.103-24.133-10.067-36.991l2.232,2.232c1.125,1.125,2.651,1.757,4.243,1.757   s3.118-0.632,4.243-1.757l23.74-23.74c2.343-2.343,2.343-6.142,0-8.485l-23.74-23.74c-2.343-2.344-6.142-2.343-8.485,0   l-2.233,2.233c1.964-12.858,5.38-25.243,10.066-36.989l32.278,31.927c2.338,2.313,6.101,2.313,8.438,0l36.221-35.826l36.221,35.826   c2.338,2.313,6.102,2.313,8.439,0l36.211-35.825l36.22,35.826c2.338,2.313,6.101,2.313,8.438,0l36.221-35.826l36.221,35.826   c1.169,1.156,2.694,1.734,4.219,1.734s3.051-0.578,4.22-1.735l32.273-31.93c4.687,11.748,8.103,24.135,10.067,36.995l-2.235-2.235   c-2.344-2.344-6.143-2.343-8.485,0l-23.74,23.74c-1.125,1.125-1.757,2.651-1.757,4.243s0.632,3.117,1.757,4.243l23.74,23.74   c1.171,1.171,2.707,1.757,4.243,1.757s3.071-0.586,4.243-1.757l2.235-2.235c-1.964,12.86-5.381,25.248-10.069,36.997   L361.448,320.814z M388.51,364.469c-2.111,4.308-4.399,8.514-6.855,12.609l-20.207-19.994c-2.338-2.313-6.102-2.313-8.439,0   l-36.221,35.826l-36.221-35.826c-2.338-2.313-6.101-2.313-8.438,0l-36.22,35.826l-36.211-35.825c-2.338-2.313-6.102-2.313-8.439,0   l-36.221,35.826l-36.221-35.826c-2.338-2.313-6.101-2.313-8.438,0l-20.214,19.992c-2.456-4.095-4.744-8.301-6.855-12.61   l31.288-30.947l36.221,35.826c2.338,2.313,6.101,2.313,8.438,0l36.22-35.826l36.211,35.825c1.169,1.157,2.694,1.735,4.22,1.735   s3.051-0.578,4.219-1.734l36.221-35.826l36.221,35.826c2.338,2.313,6.101,2.313,8.438,0l36.22-35.826L388.51,364.469z    M66.085,289.996c0-2.34,0.061-4.666,0.155-6.984l8.27-8.269l15.254,15.254L74.51,305.252l-8.27-8.27   C66.146,294.664,66.085,292.337,66.085,289.996z M83.308,215.531c2.111-4.309,4.399-8.515,6.855-12.61l20.216,19.995   c1.169,1.156,2.694,1.734,4.219,1.734s3.05-0.578,4.219-1.734l36.221-35.826l36.221,35.826c2.338,2.313,6.102,2.313,8.439,0   l36.211-35.825l36.22,35.826c2.338,2.313,6.101,2.313,8.438,0l36.221-35.826l36.221,35.826c2.338,2.313,6.102,2.312,8.439,0   l20.21-19.996c2.456,4.095,4.744,8.301,6.855,12.609l-31.285,30.952l-36.22-35.826c-2.338-2.313-6.101-2.313-8.438,0   l-36.221,35.826l-36.221-35.826c-2.338-2.313-6.102-2.313-8.439,0l-36.211,35.825l-36.22-35.826c-2.338-2.313-6.101-2.313-8.438,0   l-36.221,35.826L83.308,215.531z M405.737,289.996c0,2.34-0.061,4.666-0.155,6.984l-8.272,8.272l-15.255-15.255l15.255-15.254   l8.272,8.272C405.676,285.331,405.737,287.657,405.737,289.996z M217.503,30.409c0-10.15,8.258-18.409,18.408-18.409   s18.409,8.258,18.409,18.409c0,7.042-4.107,13.562-10.463,16.61c-2.082,0.998-3.406,3.102-3.406,5.41v14.775h-9.08V52.429   c0-2.309-1.324-4.412-3.406-5.41C221.61,43.971,217.503,37.451,217.503,30.409z M206.016,94.854c0-8.63,7.021-15.651,15.65-15.651   h28.49c8.63,0,15.65,7.021,15.65,15.651v15.787c-9.73-1.617-19.714-2.471-29.896-2.471c-10.181,0-20.165,0.855-29.895,2.471V94.854   z M235.911,120.17c57.451,0,108.324,28.682,139.07,72.472l-17.754,17.567l-36.22-35.826c-2.338-2.313-6.101-2.313-8.438,0   l-36.221,35.826l-36.221-35.826c-2.338-2.313-6.102-2.313-8.439,0l-36.211,35.825l-36.22-35.826c-2.338-2.313-6.101-2.313-8.438,0   l-36.221,35.827l-17.759-17.565C127.585,148.853,178.458,120.17,235.911,120.17z M235.911,459.822   c-57.451,0-108.323-28.681-139.069-72.471l17.756-17.562l36.221,35.827c2.338,2.313,6.101,2.313,8.438,0l36.22-35.826   l36.211,35.825c1.169,1.157,2.694,1.735,4.22,1.735s3.051-0.578,4.219-1.734l36.221-35.826l36.221,35.826   c2.338,2.313,6.101,2.313,8.438,0l36.22-35.826l17.751,17.564C344.231,431.142,293.36,459.822,235.911,459.822z" data-original="#000000" class="active-path" data-old_color="#781b7c" fill="#781b7c"/>
	<path d="M240.151,262.012c-2.343-2.344-6.142-2.343-8.485,0l-23.742,23.742c-1.125,1.125-1.757,2.651-1.757,4.243   s0.632,3.117,1.757,4.243l23.742,23.742c1.125,1.125,2.651,1.757,4.243,1.757s3.118-0.632,4.243-1.757l23.742-23.742   c2.343-2.343,2.343-6.142,0-8.485L240.151,262.012z M235.908,305.253l-15.257-15.257l15.257-15.256l15.256,15.256L235.908,305.253z   " data-original="#000000" class="active-path" data-old_color="#781b7c" fill="#781b7c"/>
	<path d="M159.45,262.012c-2.344-2.343-6.143-2.343-8.485,0l-23.742,23.742c-2.343,2.343-2.343,6.142,0,8.485l23.742,23.742   c1.125,1.125,2.651,1.757,4.243,1.757s3.117-0.632,4.243-1.757l23.742-23.742c1.125-1.125,1.757-2.651,1.757-4.243   s-0.632-3.118-1.757-4.243L159.45,262.012z M155.208,305.253l-15.256-15.257l15.256-15.256l15.257,15.256L155.208,305.253z" data-original="#000000" class="active-path" data-old_color="#781b7c" fill="#781b7c"/>
	<path d="M320.85,262.012c-2.344-2.343-6.143-2.343-8.485,0l-23.742,23.742c-2.343,2.343-2.343,6.142,0,8.485l23.742,23.742   c1.125,1.125,2.651,1.757,4.243,1.757s3.117-0.632,4.243-1.757l23.742-23.742c1.125-1.125,1.757-2.651,1.757-4.243   s-0.632-3.118-1.757-4.243L320.85,262.012z M316.608,305.253l-15.256-15.257l15.256-15.256l15.257,15.256L316.608,305.253z" data-original="#000000" class="active-path" data-old_color="#781b7c" fill="#781b7c"/>
</g></g> </svg>
