<?xml version="1.0"?>
<svg xmlns="http://www.w3.org/2000/svg" xmlns:xlink="http://www.w3.org/1999/xlink" version="1.1" id="Capa_1" x="0px" y="0px" viewBox="0 0 471.822 471.822" style="enable-background:new 0 0 471.822 471.822;" xml:space="preserve" width="512px" height="512px" class=""><g><g>
	<path d="M277.806,113.05V94.854c0-14.473-11.179-26.376-25.354-27.548V55.924c8.531-5.558,13.868-15.196,13.868-25.515   C266.32,13.641,252.679,0,235.911,0s-30.408,13.641-30.408,30.409c0,10.319,5.337,19.958,13.868,25.515v11.383   c-14.176,1.171-25.355,13.075-25.355,27.548v18.196c-80.129,18.97-139.931,91.102-139.931,176.946   c0,100.259,81.567,181.826,181.826,181.826s181.825-81.567,181.825-181.826C417.737,204.152,357.935,132.02,277.806,113.05z    M217.503,30.409c0-10.15,8.258-18.409,18.408-18.409s18.408,8.258,18.408,18.409c0,7.042-4.106,13.562-10.463,16.61   c-2.081,0.998-3.405,3.102-3.405,5.41v14.775h-9.08V52.429c0-2.309-1.324-4.412-3.405-5.41   C221.61,43.971,217.503,37.451,217.503,30.409z M206.016,94.854c0-8.63,7.021-15.651,15.65-15.651h28.489   c8.63,0,15.65,7.021,15.65,15.651v15.787c-9.73-1.616-19.713-2.471-29.895-2.471c-10.181,0-20.166,0.855-29.896,2.471V94.854z    M357.11,408.826l-2.754-2.754v-20.187c0-3.313-2.687-6-6-6s-6,2.687-6,6v8.187l-15.399-15.399c-2.342-2.343-6.143-2.343-8.484,0   c-2.344,2.343-2.344,6.142,0,8.485l15.399,15.399h-8.187c-3.313,0-6,2.687-6,6s2.687,6,6,6h20.187l2.54,2.539   c-29.981,26.567-69.385,42.725-112.499,42.725c-43.078,0-82.453-16.131-112.425-42.659l2.606-2.606h20.187c3.313,0,6-2.687,6-6   s-2.687-6-6-6h-8.187l15.399-15.399c2.344-2.343,2.344-6.142,0-8.485c-2.342-2.343-6.143-2.343-8.484,0l-15.399,15.399v-8.187   c0-3.313-2.687-6-6-6s-6,2.687-6,6v20.187l-2.826,2.826c-30.1-30.658-48.697-72.646-48.697-118.902   c0-46.044,18.428-87.859,48.285-118.48l3.237,3.237v20.187c0,3.313,2.687,6,6,6s6-2.687,6-6v-8.187l15.399,15.399   c1.171,1.171,2.707,1.757,4.242,1.757s3.071-0.586,4.242-1.757c2.344-2.343,2.344-6.142,0-8.485l-15.399-15.399h8.187   c3.313,0,6-2.687,6-6s-2.687-6-6-6h-20.187l-3.047-3.047c30.026-26.76,69.576-43.05,112.866-43.05   c43.325,0,82.906,16.317,112.94,43.117l-2.981,2.981h-20.187c-3.313,0-6,2.687-6,6s2.687,6,6,6h8.187l-15.399,15.399   c-2.344,2.343-2.344,6.142,0,8.485c1.171,1.171,2.707,1.757,4.242,1.757s3.071-0.586,4.242-1.757l15.399-15.399v8.187   c0,3.313,2.687,6,6,6s6-2.687,6-6v-20.187l3.166-3.166c29.816,30.615,48.215,72.4,48.215,118.409   C405.737,336.216,387.168,378.174,357.11,408.826z" data-original="#000000" class="active-path" data-old_color="#0092a7" fill="#0092a7"/>
	<path d="M384.504,283.996h-21.778l5.789-5.789c2.344-2.343,2.344-6.142,0.001-8.485c-2.343-2.342-6.143-2.344-8.485,0   l-14.275,14.274H328.36l19.276-19.276c2.344-2.343,2.344-6.142,0-8.485c-2.342-2.343-6.143-2.343-8.484,0l-27.762,27.761h-17.395   l27.518-27.518c2.344-2.343,2.344-6.142,0-8.485c-2.342-2.343-6.143-2.343-8.484,0l-36.004,36.003h-26.628l48.68-48.681   c2.344-2.343,2.344-6.142,0-8.485c-2.342-2.343-6.143-2.343-8.484,0l-48.681,48.681v-26.629l36.003-36.003   c2.344-2.343,2.344-6.142,0-8.485c-2.341-2.343-6.142-2.343-8.484,0l-27.519,27.518v-17.395l27.761-27.761   c2.344-2.343,2.344-6.142,0-8.485c-2.342-2.343-6.143-2.343-8.484,0l-19.276,19.276v-17.395l14.274-14.274   c2.343-2.343,2.343-6.142-0.001-8.485c-2.342-2.343-6.142-2.343-8.485,0l-5.788,5.789v-21.777c0-3.313-2.687-6-6-6s-6,2.687-6,6   v21.777l-5.788-5.789c-2.343-2.343-6.143-2.344-8.485,0c-2.344,2.343-2.344,6.142-0.001,8.485l14.274,14.274v17.395l-19.276-19.276   c-2.342-2.343-6.143-2.343-8.484,0c-2.344,2.343-2.344,6.142,0,8.485l27.761,27.761v17.395l-27.519-27.518   c-2.342-2.343-6.143-2.343-8.484,0c-2.344,2.343-2.344,6.142,0,8.485l36.003,36.003v26.629L181.23,226.83   c-2.342-2.343-6.143-2.343-8.484,0c-2.344,2.343-2.344,6.142,0,8.485l48.681,48.681h-26.629l-36.004-36.003   c-2.342-2.343-6.143-2.343-8.484,0c-2.344,2.343-2.344,6.142,0,8.485l27.518,27.518h-17.395l-27.762-27.761   c-2.342-2.343-6.143-2.343-8.484,0c-2.344,2.343-2.344,6.142,0,8.485l19.276,19.276h-17.395l-14.274-14.274   c-2.342-2.343-6.143-2.343-8.484,0c-2.344,2.343-2.344,6.142,0,8.485l5.788,5.789H87.319c-3.313,0-6,2.687-6,6s2.687,6,6,6h21.778   l-5.788,5.789c-2.344,2.343-2.344,6.142,0,8.485c1.171,1.171,2.707,1.757,4.242,1.757s3.071-0.586,4.242-1.757l14.274-14.274   h17.395l-19.276,19.276c-2.344,2.343-2.344,6.142,0,8.485c1.171,1.171,2.707,1.757,4.242,1.757s3.071-0.586,4.242-1.757   l27.762-27.761h17.395l-27.518,27.518c-2.344,2.343-2.344,6.142,0,8.485c1.171,1.171,2.707,1.757,4.242,1.757   s3.071-0.586,4.242-1.757l36.004-36.003h26.629l-48.681,48.681c-2.344,2.343-2.344,6.142,0,8.485   c1.171,1.172,2.706,1.757,4.242,1.757c1.535,0,3.071-0.586,4.242-1.757l48.682-48.681v26.629l-36.003,36.003   c-2.344,2.343-2.344,6.142,0,8.485c2.342,2.343,6.143,2.343,8.484,0l27.519-27.518v17.395l-27.761,27.761   c-2.344,2.343-2.344,6.142,0,8.485c2.342,2.343,6.143,2.343,8.484,0l19.276-19.276v17.395l-14.274,14.274   c-2.343,2.343-2.343,6.142,0.001,8.485c2.342,2.343,6.142,2.343,8.485,0l5.788-5.789v21.777c0,3.313,2.687,6,6,6s6-2.687,6-6   v-21.777l5.788,5.789c1.172,1.172,2.707,1.757,4.243,1.757c1.535,0,3.071-0.586,4.242-1.757c2.344-2.343,2.344-6.142,0.001-8.485   l-14.274-14.274v-17.395l19.276,19.276c1.171,1.171,2.707,1.757,4.242,1.757s3.071-0.586,4.242-1.757   c2.344-2.343,2.344-6.142,0-8.485l-27.761-27.761v-17.395l27.519,27.518c1.171,1.171,2.707,1.757,4.242,1.757   s3.071-0.586,4.242-1.757c2.344-2.343,2.344-6.142,0-8.485l-36.003-36.003v-26.629l48.681,48.681   c1.171,1.172,2.706,1.757,4.242,1.757c1.535,0,3.071-0.586,4.242-1.757c2.344-2.343,2.344-6.142,0-8.485l-48.68-48.681h26.628   L313.029,332c1.171,1.171,2.707,1.757,4.242,1.757s3.071-0.586,4.242-1.757c2.344-2.343,2.344-6.142,0-8.485l-27.518-27.518h17.395   l27.762,27.761c1.171,1.171,2.707,1.757,4.242,1.757s3.071-0.586,4.242-1.757c2.344-2.343,2.344-6.142,0-8.485l-19.276-19.276   h17.395l14.275,14.274c1.171,1.172,2.707,1.757,4.242,1.757s3.071-0.586,4.243-1.757c2.343-2.343,2.343-6.143-0.001-8.485   l-5.789-5.789h21.778c3.313,0,6-2.687,6-6S387.818,283.996,384.504,283.996z" data-original="#000000" class="active-path" data-old_color="#0092a7" fill="#0092a7"/>
</g></g> </svg>
