<?xml version="1.0"?>
<svg xmlns="http://www.w3.org/2000/svg" xmlns:xlink="http://www.w3.org/1999/xlink" version="1.1" id="Capa_1" x="0px" y="0px" viewBox="0 0 471.821 471.821" style="enable-background:new 0 0 471.821 471.821;" xml:space="preserve" width="512px" height="512px" class=""><g><g>
	<path d="M277.806,113.05V94.854c0-14.472-11.179-26.376-25.354-27.548V55.924c8.531-5.558,13.868-15.196,13.868-25.516   C266.319,13.641,252.679,0,235.911,0s-30.408,13.641-30.408,30.408c0,10.319,5.337,19.958,13.868,25.516v11.382   c-14.176,1.171-25.355,13.075-25.355,27.548v18.196c-80.129,18.97-139.931,91.101-139.931,176.946   c0,100.259,81.567,181.825,181.826,181.825s181.825-81.566,181.825-181.825C417.736,204.151,357.935,132.019,277.806,113.05z    M405.736,289.996c0,7.736-0.531,15.349-1.537,22.813c-10.145-2.667-17.5-11.841-17.5-22.809c0-10.968,7.356-20.142,17.501-22.809   C405.206,274.652,405.736,282.263,405.736,289.996z M80.583,358.617c15.507-4.262,28.674-13.482,37.898-25.766h60.602   c13.011,17.21,33.64,28.355,56.829,28.355s43.818-11.145,56.829-28.355h60.598c9.225,12.285,22.392,21.505,37.9,25.767   c-5.723,12.905-13.002,24.972-21.609,35.953H102.192C93.585,383.589,86.306,371.522,80.583,358.617z M66.085,289.996   c0-7.732,0.53-15.342,1.536-22.803c10.143,2.672,17.498,11.845,17.498,22.807c0,10.962-7.354,20.135-17.497,22.807   C66.615,305.343,66.085,297.731,66.085,289.996z M97.119,290c0-16.918-11.615-31.02-27.471-34.674   c1.622-7.786,3.781-15.377,6.432-22.736c26.14,6.561,44.639,29.965,44.639,57.41c0,27.446-18.499,50.845-44.64,57.399   c-2.65-7.355-4.808-14.942-6.43-22.725C85.505,321.02,97.119,306.919,97.119,290z M391.238,221.373   c-15.506,4.263-28.673,13.483-37.897,25.767H292.74c-13.011-17.21-33.64-28.355-56.828-28.355s-43.818,11.146-56.828,28.355   h-60.608c-9.224-12.283-22.388-21.503-37.892-25.767c5.724-12.905,13.002-24.972,21.609-35.954h267.436   C378.236,196.401,385.515,208.468,391.238,221.373z M164.971,284h-32.509c-0.729-8.821-3.048-17.212-6.702-24.859h45.978   C168.054,266.772,165.712,275.162,164.971,284z M132.462,296h32.51c0.742,8.835,3.083,17.222,6.766,24.851h-45.973   C129.417,313.206,131.734,304.818,132.462,296z M176.7,289.996c0-32.649,26.562-59.211,59.211-59.211s59.211,26.562,59.211,59.211   c0,32.648-26.562,59.21-59.211,59.21S176.7,322.645,176.7,289.996z M306.85,296h32.505c0.729,8.818,3.046,17.206,6.698,24.851   h-45.969C303.767,313.222,306.109,304.835,306.85,296z M339.355,284h-32.504c-0.741-8.838-3.083-17.228-6.767-24.859h45.971   C342.402,266.788,340.084,275.179,339.355,284z M351.099,290c0-27.45,18.501-50.854,44.643-57.409   c2.651,7.358,4.81,14.947,6.431,22.733c-15.858,3.649-27.474,17.75-27.474,34.677c0,16.926,11.615,31.027,27.472,34.676   c-1.621,7.782-3.78,15.369-6.429,22.723C369.6,340.845,351.099,317.446,351.099,290z M308.656,136.561h-145.49   c22.062-10.502,46.728-16.391,72.745-16.391C261.928,120.17,286.593,126.058,308.656,136.561z M217.503,30.408   c0-10.15,8.258-18.408,18.408-18.408s18.408,8.258,18.408,18.408c0,7.043-4.106,13.563-10.463,16.61   c-2.081,0.998-3.405,3.102-3.405,5.41v14.774h-9.08V52.429c0-2.309-1.324-4.412-3.405-5.41   C221.609,43.971,217.503,37.451,217.503,30.408z M206.016,94.854c0-8.63,7.021-15.65,15.65-15.65h28.489   c8.63,0,15.65,7.021,15.65,15.65v15.788c-9.73-1.616-19.713-2.471-29.895-2.471c-10.181,0-20.166,0.855-29.896,2.471V94.854z    M142.016,148.561h187.789c10.749,7.159,20.64,15.507,29.481,24.859H112.535C121.376,164.068,131.267,155.72,142.016,148.561z    M163.166,443.431h145.49c-22.062,10.502-46.728,16.391-72.745,16.391C209.894,459.821,185.228,453.933,163.166,443.431z    M329.806,431.431h-187.79c-10.749-7.16-20.64-15.508-29.482-24.86h246.754C350.446,415.923,340.555,424.271,329.806,431.431z" data-original="#000000" class="active-path" data-old_color="#b10034" fill="#b10034"/>
	<path d="M235.911,325.605c19.635,0,35.609-15.975,35.609-35.609c0-19.636-15.975-35.61-35.609-35.61   c-19.636,0-35.61,15.975-35.61,35.61C200.301,309.631,216.275,325.605,235.911,325.605z M235.911,266.386   c13.019,0,23.609,10.592,23.609,23.61s-10.591,23.609-23.609,23.609s-23.61-10.591-23.61-23.609S222.893,266.386,235.911,266.386z" data-original="#000000" class="active-path" data-old_color="#b10034" fill="#b10034"/>
</g></g> </svg>
