<?xml version="1.0"?>
<svg xmlns="http://www.w3.org/2000/svg" xmlns:xlink="http://www.w3.org/1999/xlink" version="1.1" id="Capa_1" x="0px" y="0px" viewBox="0 0 471.822 471.822" style="enable-background:new 0 0 471.822 471.822;" xml:space="preserve" width="512px" height="512px" class=""><g><path d="M277.806,113.05V94.854c0-14.473-11.179-26.376-25.354-27.548V55.924c8.531-5.558,13.868-15.196,13.868-25.515  C266.32,13.641,252.678,0,235.911,0s-30.408,13.641-30.408,30.409c0,10.319,5.337,19.958,13.869,25.515v11.383  c-14.176,1.171-25.355,13.075-25.355,27.548v18.196c-80.129,18.97-139.931,91.102-139.931,176.946  c0,100.259,81.567,181.826,181.826,181.826c100.259,0,181.826-81.567,181.826-181.826  C417.737,204.152,357.935,132.02,277.806,113.05z M400.912,330.215l-40.814-55.958l33.095-48.288  c8.078,19.77,12.543,41.386,12.543,64.027C405.737,303.849,404.057,317.316,400.912,330.215z M232.889,120.209l21.913,30.044  l-68.679,66.477l-56.737-58.89C157.81,134.884,193.754,120.896,232.889,120.209z M248.032,120.608  c10.939,0.775,21.594,2.594,31.868,5.352l-16.392,15.867L248.032,120.608z M261.942,160.042l51.322,70.366l-54.138,62.095  l-64.677-67.132L261.942,160.042z M345.403,274.472l-43.085,62.863l-34.835-36.157l53.03-60.831L345.403,274.472z M328.6,231.071  l40.441-46.39c7.015,8.849,13.168,18.409,18.331,28.555l-34.774,50.737L328.6,231.071z M251.21,301.583l-43.284,49.646  l-83.219-58.351l61.119-59.16L251.21,301.583z M258.463,401.321l-39.516,57.656c-25.075-2.498-48.556-10.48-69.238-22.715  l60.169-69.007L258.463,401.321z M217.808,358.158l41.758-47.901l35.824,37.184l-30.143,43.98L217.808,358.158z M303.892,356.265  l51.917,53.888c-9.024,9.004-19.057,16.993-29.906,23.799l-50.829-35.64L303.892,356.265z M310.818,346.158l42.084-61.403  l43.769,60.01c-7.18,21.018-18.373,40.192-32.661,56.604L310.818,346.158z M361.172,175.445l-39.822,45.686l-50.703-69.516  l22.296-21.581C319.287,139.455,342.644,155.202,361.172,175.445z M217.503,30.409c0-10.15,8.258-18.409,18.408-18.409  c10.151,0,18.409,8.258,18.409,18.409c0,7.042-4.106,13.562-10.463,16.61c-2.081,0.998-3.405,3.102-3.405,5.41v14.775h-9.08V52.429  c0-2.309-1.324-4.412-3.406-5.41C221.61,43.971,217.503,37.451,217.503,30.409z M206.016,94.854c0-8.63,7.021-15.651,15.65-15.651  h28.489c8.63,0,15.65,7.021,15.65,15.651v15.787c-9.73-1.616-19.714-2.471-29.895-2.471s-20.165,0.855-29.895,2.471V94.854z   M120.309,165.713l57.192,59.363l-62.799,60.786l-44.854-31.451C77.263,219.771,95.272,189.018,120.309,165.713z M66.085,289.996  c0-7.634,0.515-15.149,1.496-22.518l38.34,26.883l-35.4,34.265C67.622,316.212,66.085,303.281,66.085,289.996z M74.172,341.792  l41.754-40.415l84.069,58.948l-60.5,69.392C109.008,408.614,85.733,377.805,74.172,341.792z M232.942,459.784l35.347-51.573  l46.124,32.341c-23.493,12.299-50.197,19.269-78.502,19.269C234.918,459.822,233.931,459.801,232.942,459.784z" data-original="#000000" class="active-path" data-old_color="#000000" fill="#004178"/></g> </svg>
